PathFileType	4	(X/Y/Z)	/Users/visionmauri/Downloads/Videos/OAW12-top_Sports2D/OAW12-top_Sports2D_px_person00.trc
DataRate	CameraRate	NumFrames	NumMarkers	Units	OrigDataRate	OrigDataStartFrame	OrigNumFrames
25.0	25.0	12	22	m	25.0	1512	1729
Frame#	Time	Hip			RHip			RKnee			RAnkle			RBigToe			RSmallToe			RHeel			LHip			LKnee			LAnkle			LBigToe			LSmallToe			LHeel			Neck			Head			Nose			RShoulder			RElbow			RWrist			LShoulder			LElbow			LWrist			
		X1	Y1	Z1	X2	Y2	Z2	X3	Y3	Z3	X4	Y4	Z4	X5	Y5	Z5	X6	Y6	Z6	X7	Y7	Z7	X8	Y8	Z8	X9	Y9	Z9	X10	Y10	Z10	X11	Y11	Z11	X12	Y12	Z12	X13	Y13	Z13	X14	Y14	Z14	X15	Y15	Z15	X16	Y16	Z16	X17	Y17	Z17	X18	Y18	Z18	X19	Y19	Z19	X20	Y20	Z20	X21	Y21	Z21	X22	Y22	Z22
1512	60.515	538.4871131391898	454.74971842561274	0.0	524.5610702993018	455.9063483726554	0.0	527.2126864866415	515.7365507715759	0.0	526.8992341646825	563.4756577317341	0.0	528.1869417733019	579.5432384032331	0.0	520.4271814203627	576.9710426667755	0.0	528.5256797388247	571.4731788619472	0.0	551.9300983653675	455.7000392549425	0.0	549.7700175200182	514.2127490577515	0.0	549.6163819597808	568.5285345213921	0.0	548.1048569161691	586.1788755107389	0.0	556.6135272433909	584.2853533302995	0.0	547.0267653388449	576.7121801218003	0.0	539.0178899237284	376.073722970913	0.0	538.1985253660682	332.9580966528123	0.0	537.7083938647831	361.5085871264904	0.0	513.722066140403	387.4143810748204	0.0	501.53207465882076	426.43673788367704	0.0	496.32346054823387	463.8232465555276	0.0	564.7290949952351	386.4121978834996	0.0	574.8055487187105	425.3998352233459	0.0	578.1921461656722	461.6318618886297	0.0
1513	60.555023148148145	539.2535743041392	455.37251966071466	0.0	525.5606414306162	456.44873137977544	0.0	527.3548830474899	517.4961683443375	0.0	527.0133993854793	563.5562530821836	0.0	528.25190000594	579.6155108791515	0.0	520.8562596861758	576.9764716784579	0.0	528.746173791246	571.4678842204546	0.0	552.5933805235071	456.16638693695523	0.0	549.85933125674	515.9285398581001	0.0	549.7450166382002	569.6670948173074	0.0	547.6905519845211	587.6719020072359	0.0	556.0587586055996	585.6615936243929	0.0	547.1441936157714	577.6774523496761	0.0	540.2298744106977	376.0997705310167	0.0	539.2736208093027	332.2106798831502	0.0	539.1651199716098	360.9000360090038	0.0	515.195420370281	387.7895904525124	0.0	502.8599301921263	425.84296270364695	0.0	498.02380011243736	462.5925299299591	0.0	565.8379672331035	387.0614928867966	0.0	575.8158465927139	426.350118902404	0.0	578.7392321841168	462.24062515566015	0.0
1514	60.595046296296296	540.2362987076134	456.0235541426455	0.0	526.4051177431985	456.9968284038128	0.0	527.6819385492861	519.3570061838817	0.0	527.2095088467148	563.2679120844302	0.0	528.2764202246825	579.8369300907465	0.0	521.2315610709715	576.876601375465	0.0	528.7757072531093	570.5854352546636	0.0	553.548913811747	456.7776842999131	0.0	550.2306138764076	518.2133359952231	0.0	549.2578831638328	570.8018814262415	0.0	546.724489893018	588.9033070538072	0.0	555.1353615480922	587.0910688657792	0.0	547.1125186919866	578.4861988340301	0.0	541.6003453503553	375.41411249462664	0.0	540.7517520714493	332.80050533925953	0.0	540.5930710347551	360.8577045288891	0.0	516.7478058323466	387.5830643076731	0.0	504.4353440313945	424.83621268320803	0.0	499.7996837841895	460.2015636783081	0.0	567.0590489940356	387.5419533392227	0.0	576.9249776593315	427.1355415653223	0.0	579.1680558805555	462.4957485994455	0.0
1515	60.63506944444445	541.5803456253354	457.0198157093299	0.0	527.3374819193607	457.75704086882865	0.0	528.419437023287	520.1706413371398	0.0	527.3610101824777	562.4725918594442	0.0	528.7435793431004	580.0790965279152	0.0	521.6709020877425	576.8449550200315	0.0	528.2124786873336	568.7711644060481	0.0	555.007547297555	457.3704444560667	0.0	550.7935203871616	519.6355199239001	0.0	549.0715849064482	572.280555561743	0.0	546.3057656621844	590.1572823112018	0.0	554.7766320640152	588.5795137480233	0.0	547.057843245465	579.8894227520971	0.0	543.1683158368753	376.77209374659725	0.0	542.6141628041088	337.33331621141474	0.0	541.7107249131947	364.38866563416076	0.0	518.2553278465407	387.55053458088344	0.0	505.8805860681891	424.19551378348035	0.0	502.18936007225676	457.88320051891657	0.0	568.7668724128737	388.22548746480163	0.0	578.8442583834698	427.82583415388865	0.0	580.4003287070286	464.0248776975919	0.0
1516	60.67509259259259	543.030818149331	458.1096101188416	0.0	528.3339277089167	458.72821968297626	0.0	529.264186311448	520.0745345487887	0.0	527.3141818104365	561.0233507043941	0.0	529.5514722284481	579.8952501920814	0.0	522.2769985348616	576.8395513759718	0.0	527.2306701817458	566.296186564155	0.0	556.5897482052494	458.0534972990347	0.0	551.216513793184	519.7557811480475	0.0	549.4449174090414	573.3738958013787	0.0	546.5755969379031	590.9284466617058	0.0	554.9380885086923	589.3738091879625	0.0	547.0360252672107	580.9211621581534	0.0	544.7827833030649	379.11954506949775	0.0	544.584197385391	342.77441569583596	0.0	542.9463312985939	369.03715053475906	0.0	519.6745624033725	387.75832970630273	0.0	507.06334288571844	424.3988010341185	0.0	504.6077119631703	456.2532180064195	0.0	570.60120019859	388.86831997714046	0.0	580.8244970398717	428.10553977388116	0.0	582.4994602743601	465.29349524135785	0.0
1517	60.71511574074074	544.2586863233454	458.6984622637609	0.0	529.2094454428102	459.36233694397396	0.0	529.6839146567231	519.8283787298224	0.0	526.8693677913749	559.2206874565406	0.0	529.9214792240919	579.3661685954875	0.0	522.4513112464349	576.8405354982959	0.0	526.2894590279872	563.7445195253174	0.0	557.8010058891283	458.98165066731497	0.0	551.5303165647638	519.2021201281893	0.0	549.6414365746245	573.406453542424	0.0	546.8262655005225	590.692824247257	0.0	555.1041466824294	589.1703346449543	0.0	546.9664501496213	580.913701232672	0.0	546.2567251511834	379.4265335377945	0.0	546.2523971979183	343.3411711971295	0.0	544.4567318090623	369.4196139013132	0.0	520.9456538908416	387.74815627521895	0.0	507.9593730426213	424.976090546939	0.0	506.27019479504986	455.43541343513465	0.0	572.0375664605181	389.0859438550245	0.0	582.0300940476419	428.2110734891046	0.0	584.4765268360197	464.8192359109041	0.0
1518	60.75513888888889	545.1507558458574	458.71656765407323	0.0	529.9690784349814	459.4419388020543	0.0	529.7026456077577	520.283739911658	0.0	526.1399334340593	557.9788439983759	0.0	529.4002567456208	579.3484240287692	0.0	521.5464973537845	577.1931771340298	0.0	525.4715673543722	561.7686508064558	0.0	558.7457504815435	459.5912989739683	0.0	552.0894235802645	519.0480953002418	0.0	549.3201557591668	573.0679333193846	0.0	546.8557348481676	590.1975004726171	0.0	555.1342719464899	588.9118388319844	0.0	546.7877211798441	580.6409658596774	0.0	547.5798631395696	377.99201603519197	0.0	547.6318840710477	340.32490714742596	0.0	546.0462600812614	366.5025044468697	0.0	522.0825549986421	387.5514833030678	0.0	508.8301423311781	425.21422700028955	0.0	507.40636642505615	455.4287333236078	0.0	573.312567848191	389.0015915099393	0.0	583.1908279280863	428.82198814935515	0.0	585.9923362180004	464.5452029515927	0.0
1519	60.79516203703704	545.727821396686	458.53718808233197	0.0	530.797634405916	459.2552807329529	0.0	529.7036583025433	521.0947343462607	0.0	525.6949535369199	557.879650591056	0.0	528.2064666535659	580.5670696477589	0.0	519.9363262523439	578.2477357285903	0.0	525.1134766982286	561.153643476764	0.0	559.7177914992757	459.2897221329324	0.0	553.0105753692146	519.3936308423877	0.0	549.0947185042787	573.1388403151026	0.0	547.0889670608759	590.2906799942964	0.0	555.2780748541801	589.2109679470893	0.0	546.6526644287543	580.6535174627917	0.0	548.9009576021946	377.1973617110919	0.0	549.0655329649186	338.8442090472329	0.0	547.8360217024165	365.47333797986323	0.0	523.0919356021453	387.4348251484464	0.0	509.81369640054567	425.1128827662808	0.0	508.44825938946775	456.18391888681526	0.0	574.8038597261911	388.89436911689114	0.0	584.8851307962864	429.80659028525383	0.0	587.5635556268926	466.1825048313758	0.0
1520	60.83518518518518	546.2527834545314	458.4754460166327	0.0	531.7758685471424	459.1831636169413	0.0	529.656547907821	521.525998699927	0.0	525.8997856859896	559.4685949490123	0.0	526.8735913348262	583.0377929240757	0.0	518.8070056655782	580.008935024586	0.0	525.6232004503179	563.177815962914	0.0	560.7469182814449	458.87717477256416	0.0	553.8734556437114	519.9356574033753	0.0	549.2548931034577	573.3457373978437	0.0	547.3977462553436	590.7265738074987	0.0	555.5330983797999	589.4604515856213	0.0	546.7358448255873	580.519401996573	0.0	550.2882386120881	377.3282098924525	0.0	550.5628657656133	338.9104315119648	0.0	549.7034587231781	366.295000726855	0.0	524.1018364129819	387.3600897379277	0.0	510.8443281810231	425.2359605012374	0.0	509.27638903344524	457.88017826981053	0.0	576.3637239379773	388.86338606702526	0.0	586.3706328058134	430.3605709933811	0.0	589.3264563536462	468.2081745392267	0.0
1521	60.87520833333333	546.9988745469695	458.6380473801437	0.0	532.6070489422909	459.48645218002457	0.0	529.4619071495453	522.0202816229959	0.0	526.5105725015703	563.3841421709652	0.0	526.0424840242268	586.2124063410276	0.0	518.7696810024763	582.4814507614211	0.0	526.7736071145167	568.4095094418095	0.0	561.6669836418112	459.4685736870237	0.0	554.3704062795923	520.9609356549422	0.0	549.431979112625	573.3403348919584	0.0	547.3473680748123	590.9249588378785	0.0	555.6319438634633	589.2074438934834	0.0	546.995890730187	580.0917856673193	0.0	551.5840080166554	377.1104094177175	0.0	551.9962698419804	337.74985988443376	0.0	551.0604726338591	365.41559189830895	0.0	525.2925972766923	387.28314530000455	0.0	511.94137791045785	425.8867085991252	0.0	509.53995710184796	460.6782393563902	0.0	577.6829236357452	388.79785157504483	0.0	587.217730168002	430.30525464815594	0.0	590.809237960055	468.90636422933954	0.0
1522	60.915231481481484	547.7723160353157	458.902852072462	0.0	532.9174215837314	459.8796162089532	0.0	529.5204921839115	522.3323974914153	0.0	527.1704608635491	568.7769952780066	0.0	525.9445336709024	589.4974662134674	0.0	519.1097171843219	586.0123656462334	0.0	528.0061770672588	575.2109273721571	0.0	562.2846480703727	460.42574414764596	0.0	554.7420944722129	522.0055236055607	0.0	549.4371189812318	573.2140953316645	0.0	547.2602483977678	590.8238724517524	0.0	555.5589701946676	588.9185056725506	0.0	547.2096621739029	579.740772954669	0.0	552.510964984478	376.443977918101	0.0	553.2857182256946	335.6594170298965	0.0	551.7403928550167	363.07865378846947	0.0	526.3712434837728	387.55869041286803	0.0	513.0004417737578	426.95270730548225	0.0	509.2043793066758	463.95734742644987	0.0	578.5236743793101	388.626219727518	0.0	587.9753779848947	430.2765483562844	0.0	591.6929990570626	468.86935560181365	0.0
1523	60.95525462962963	548.2941889378208	459.1008018489122	0.0	532.8984872656035	459.74454463010017	0.0	530.2576993671064	521.4805521473722	0.0	527.6382005176308	573.8413246458855	0.0	526.338714677339	592.759723215404	0.0	519.0117134021876	590.4503218884173	0.0	528.6210139143164	581.2735868748355	0.0	562.6886561365139	460.3989802469155	0.0	555.1905462344241	522.0912568275149	0.0	549.3719761948909	573.2378032920371	0.0	547.4962309616784	590.903928331505	0.0	555.4291923631656	589.148903861823	0.0	547.221009020329	579.7408164900303	0.0	552.9383858142875	376.383407808585	0.0	554.0920644988072	334.57481536423	0.0	552.095280441888	361.9266217000346	0.0	526.9506836577646	388.2877381487467	0.0	513.8819110430127	428.3562957098451	0.0	508.6652974476875	466.8696532910802	0.0	578.9712198038648	388.5466268751403	0.0	589.0056947028004	430.84990971668026	0.0	592.2139104431733	469.30364306770076	0.0
